<?xml version="1.0" standalone="no"?>
<!DOCTYPE svg PUBLIC "-//W3C//DTD SVG 20010904//EN"
 "http://www.w3.org/TR/2001/REC-SVG-20010904/DTD/svg10.dtd">
<svg version="1.0" xmlns="http://www.w3.org/2000/svg"
 width="636.000000pt" height="636.000000pt" viewBox="0 0 636.000000 636.000000"
 preserveAspectRatio="xMidYMid meet">
<metadata>
Created by potrace 1.14, written by Peter Selinger 2001-2017
</metadata>
<g transform="translate(0.000000,636.000000) scale(0.100000,-0.100000)"
fill="#000000" stroke="none">
<path d="M4275 6319 c-49 -23 -114 -52 -143 -65 -29 -13 -80 -35 -113 -49 -33
-14 -88 -38 -122 -54 -102 -47 -135 -62 -562 -251 -225 -100 -443 -198 -483
-216 -41 -19 -75 -34 -78 -34 -2 0 -38 -16 -80 -35 -41 -19 -77 -35 -79 -35
-2 0 -36 -15 -77 -34 -40 -19 -419 -188 -843 -376 -423 -189 -795 -354 -825
-367 -30 -14 -68 -31 -85 -39 -16 -7 -59 -26 -95 -42 -36 -16 -168 -75 -295
-132 -126 -56 -258 -115 -293 -131 -35 -16 -67 -29 -72 -29 -5 0 -11 -4 -15
-9 -4 -8 253 -601 380 -876 13 -27 50 -111 83 -185 33 -74 125 -283 206 -465
81 -181 153 -343 161 -360 7 -16 24 -55 38 -85 14 -30 80 -179 147 -330 67
-151 131 -295 142 -320 11 -25 26 -58 33 -75 13 -30 91 -205 125 -280 10 -22
84 -188 165 -370 80 -181 154 -347 164 -370 10 -22 54 -119 96 -215 43 -96 90
-202 105 -235 15 -33 42 -94 60 -135 18 -41 36 -79 41 -84 6 -7 615 257 1099
477 36 16 146 65 245 109 99 44 198 88 220 98 22 10 351 156 730 325 380 169
713 317 740 330 28 12 109 48 180 80 72 31 155 68 185 82 30 14 130 58 223 99
187 82 239 106 312 139 243 111 413 185 423 185 5 0 15 7 22 15 10 12 9 21 -3
47 -8 18 -77 173 -152 343 -76 171 -139 312 -141 314 -2 2 -6 -10 -9 -25 -49
-257 -134 -390 -297 -468 -156 -74 -316 -96 -673 -91 -143 2 -278 6 -300 10
-349 54 -499 175 -571 460 -1 6 -5 28 -9 50 -3 22 -8 51 -10 63 -16 94 -22
537 -11 742 8 144 15 203 37 287 73 288 264 418 659 449 98 8 427 8 492 0 21
-2 36 -1 34 3 -2 3 -10 22 -19 41 -8 19 -79 179 -158 355 -78 176 -150 338
-160 360 -10 22 -74 167 -143 322 -69 155 -135 304 -147 330 -12 26 -32 71
-44 98 -24 53 -253 568 -288 648 -26 59 -34 59 -152 6z m-314 -2212 c0 -12 1
-123 1 -247 l1 -225 -299 -5 -299 -5 0 -743 c0 -487 -3 -746 -10 -750 -5 -4
-139 -7 -297 -7 l-288 0 -1 45 c0 25 0 363 -1 753 l0 707 -299 0 -299 0 0 70
c-1 39 -1 140 -1 225 0 85 0 166 1 179 l0 24 895 0 895 1 1 -22z"/>
<path d="M5008 3695 c-2 -1 -24 -5 -50 -8 -51 -6 -99 -26 -135 -56 -27 -22
-72 -109 -78 -148 -2 -16 -7 -48 -11 -73 -13 -79 -8 -529 6 -605 36 -193 115
-248 360 -248 266 0 350 62 378 283 9 74 9 500 -1 577 -19 154 -75 232 -188
264 -38 10 -272 22 -281 14z"/>
<path d="M6348 3538 c-4 -120 -2 -770 3 -818 3 -30 6 151 7 403 1 251 0 457
-3 457 -3 0 -6 -19 -7 -42z"/>
<path d="M6349 1258 c-5 -175 -3 -720 2 -758 3 -25 7 147 7 383 1 235 0 427
-3 427 -3 0 -6 -24 -6 -52z"/>
<path d="M3161 440 c-34 -17 -35 -19 -32 -71 1 -30 4 -76 7 -103 l4 -49 -22
19 c-12 10 -38 35 -57 54 -76 74 -74 73 -115 54 -20 -10 -36 -21 -36 -26 0
-21 115 -258 125 -258 6 0 19 6 28 13 17 11 16 15 -2 54 -12 22 -30 65 -41 94
l-21 53 81 -81 c72 -72 84 -80 101 -70 17 10 18 21 13 92 -3 44 -7 92 -9 108
-2 15 -1 27 1 27 2 0 23 -41 46 -90 36 -80 44 -90 62 -84 12 3 24 9 28 13 8 7
-107 265 -119 267 -4 1 -24 -6 -42 -16z"/>
<path d="M2743 251 c-56 -25 -104 -49 -108 -53 -3 -3 -1 -15 6 -26 13 -20 13
-20 50 -1 l38 19 26 -58 c15 -31 34 -74 42 -95 14 -34 19 -37 53 -37 l38 0
-14 30 c-9 16 -31 65 -49 107 l-34 78 36 17 c45 22 43 19 30 44 -12 21 -13 21
-114 -25z"/>
</g>
</svg>
